<?xml version="1.0" encoding="UTF-8"?> <svg xmlns="http://www.w3.org/2000/svg" height="512" viewBox="0 0 64 64" width="512"><g id="save-eco-ecology-world-plant"><path d="m16.443 55.282c.67.448 1.368.873 2.074 1.263l.966-1.752c-.656-.361-1.3-.756-1.926-1.173z"></path><path d="m47.557 8.718c-.67-.448-1.368-.873-2.074-1.263l-.966 1.752c.656.361 1.3.756 1.926 1.173z"></path><path d="m40 28a9 9 0 0 0 -8 4.9 9 9 0 0 0 -8-4.9 1 1 0 0 0 -1 1v2a9 9 0 0 0 18 0v-2a1 1 0 0 0 -1-1zm-15 3v-.929a7.011 7.011 0 0 1 6 6.929v.929a7.011 7.011 0 0 1 -6-6.929zm14 0a7.011 7.011 0 0 1 -6 6.929v-.929a7.011 7.011 0 0 1 6-6.929z"></path><path d="m10 6h12v2h-12z"></path><path d="m10 10h12v2h-12z"></path><path d="m6 6h2v2h-2z"></path><path d="m6 10h2v2h-2z"></path><path d="m59 48h-4.04a27.976 27.976 0 0 0 -5.33-37.76l-1.26 1.55a25.968 25.968 0 0 1 9.63 20.21 25.659 25.659 0 0 1 -5.53 16h-3.94a23 23 0 0 0 -16.04-38.99 6.21 6.21 0 0 0 -.87 0 22.3 22.3 0 0 0 -5.62.8v-3.1a25.9 25.9 0 0 1 5.19-.68 3.008 3.008 0 0 0 2.81 1.97.986.986 0 0 0 .24-.03l8-2a1 1 0 0 0 0-1.94l-8-2a.986.986 0 0 0 -.24-.03 2.981 2.981 0 0 0 -2.82 2.03 27.491 27.491 0 0 0 -5.21.64 3 3 0 0 0 -2.97-2.67h-18a3.009 3.009 0 0 0 -3 3v8a3.009 3.009 0 0 0 3 3h4.05a27.953 27.953 0 0 0 5.35 37.78l1.26-1.56a25.88 25.88 0 0 1 -9.66-20.22 25.609 25.609 0 0 1 5.54-16h3.93a22.983 22.983 0 0 0 22.53 38.19v3.1a25.9 25.9 0 0 1 -5.19.68 3.008 3.008 0 0 0 -2.81-1.97.986.986 0 0 0 -.24.03l-8 2a1 1 0 0 0 0 1.94l8 2a.986.986 0 0 0 .24.03 2.981 2.981 0 0 0 2.82-2.03 27.491 27.491 0 0 0 5.21-.64 3 3 0 0 0 2.97 2.67h18a3.009 3.009 0 0 0 3-3v-8a3.009 3.009 0 0 0 -3-3zm-25.1-44 3.98 1-3.98 1a1.006 1.006 0 0 1 0-2zm-3.8 56-3.98-1 3.98-1a1.006 1.006 0 0 1 0 2zm16.81-13.21a22.746 22.746 0 0 0 -4.03-2.78c.02-.06.04-.11.06-.17a3 3 0 0 0 2.06-2.84v-8h7.97a20.889 20.889 0 0 1 -6.06 13.79zm-1.65 1.21h-4.07c.35-.66.68-1.35.99-2.09a20.6 20.6 0 0 1 3.08 2.09zm7.69-17h-7.95v-8a3 3 0 0 0 -2.06-2.84c-.02-.06-.04-.11-.06-.17a23.1 23.1 0 0 0 4-2.75 21 21 0 0 1 6.07 13.76zm-7.56-15.11a20.724 20.724 0 0 1 -3.21 2.2 19.37 19.37 0 0 0 -3.81-6.08 20.889 20.889 0 0 1 7.02 3.88zm-12.39-4.78c2.87.54 5.55 3.41 7.38 7.87a21.57 21.57 0 0 1 -2.89 1.02h-4.49zm0 10.89v1a1 1 0 0 1 -2 0v-1zm-2-10.9v8.9h-4.49a21.57 21.57 0 0 1 -2.89-1.02c1.84-4.5 4.51-7.33 7.38-7.88zm-26 2.9a1 1 0 0 1 -1-1v-8a1 1 0 0 1 1-1h18a1 1 0 0 1 1 1v8a1 1 0 0 1 -1 1zm17.81 2c-.35.66-.68 1.36-.99 2.09a20.6 20.6 0 0 1 -3.08-2.09zm-5.72 1.21a22.823 22.823 0 0 0 4.04 2.78c-.02.06-.04.11-.06.17a3 3 0 0 0 -2.07 2.84v8h-7.97a20.889 20.889 0 0 1 6.06-13.79zm-6.04 15.79h7.95v8a3 3 0 0 0 2.06 2.84c.02.06.04.11.06.17a22.986 22.986 0 0 0 -4.02 2.77 20.9 20.9 0 0 1 -6.05-13.78zm7.53 15.14a20.95 20.95 0 0 1 3.24-2.23 19.277 19.277 0 0 0 3.83 6.1 21.1 21.1 0 0 1 -7.07-3.87zm12.42 4.75c-2.87-.54-5.55-3.41-7.38-7.87a21.57 21.57 0 0 1 2.89-1.02h4.49zm-9-10.89a1 1 0 0 1 -1-1v-18a1 1 0 0 1 1-1h7v1a3 3 0 0 0 6 0v-1h7a1 1 0 0 1 1 1v18a1 1 0 0 1 -1 1zm11 10.89v-8.89h4.49a21.57 21.57 0 0 1 2.89 1.02c-1.83 4.46-4.51 7.33-7.38 7.87zm27 6.11a1 1 0 0 1 -1 1h-18a1 1 0 0 1 -1-1v-8a1 1 0 0 1 1-1h18a1 1 0 0 1 1 1z"></path><path d="m46 52h12v2h-12z"></path><path d="m46 56h12v2h-12z"></path><path d="m42 52h2v2h-2z"></path><path d="m42 56h2v2h-2z"></path></g></svg> 