<?xml version="1.0" encoding="UTF-8"?> <!-- Generator: Adobe Illustrator 19.0.0, SVG Export Plug-In . SVG Version: 6.00 Build 0) --> <svg xmlns="http://www.w3.org/2000/svg" xmlns:xlink="http://www.w3.org/1999/xlink" version="1.1" id="Capa_1" x="0px" y="0px" viewBox="0 0 496 496" style="enable-background:new 0 0 496 496;" xml:space="preserve"> <g> <g> <g> <path d="M256,245.808V176h24v-56h56V56h-56V0h-64v56h-56v64h56v56h24v29.808C228.264,192.472,211.12,184,192,184h-80v16 c0,35.288,28.712,64,64,64h48v-16h-48c-26.472,0-48-21.528-48-48h64c26.472,0,48,21.528,48,48v72.408 c-44.784,4.056-80,41.768-80,87.592c0,48.52,39.48,88,88,88s88-39.48,88-88c0-45.824-35.216-83.536-80-87.592V288 c0-26.472,21.528-48,48-48h64c0,26.472-21.528,48-48,48h-48v16h48c35.288,0,64-28.712,64-64v-16h-80 C284.88,224,267.736,232.472,256,245.808z M248,480c-39.704,0-72-32.296-72-72c0-10.728,2.424-20.88,6.648-30.04l95.384,95.384 C268.88,477.576,258.728,480,248,480z M320,408c0,23.08-10.96,43.608-27.896,56.792L191.208,363.896 c3.688-4.744,7.944-9,12.688-12.688l70.448,70.448l11.312-11.312l-67.696-67.696C227.12,338.424,237.272,336,248,336 C287.704,336,320,368.296,320,408z M232,160v-56h-56V72h56V16h32v56h56v32h-56v56H232z"></path> <rect x="440" width="16" height="24"></rect> <rect x="410.521" y="14.526" transform="matrix(0.7071 0.7071 -0.7071 0.7071 139.6816 -292.1698)" width="24" height="16"></rect> <rect x="400" y="40" width="24" height="16"></rect> <rect x="414.551" y="61.469" transform="matrix(-0.7071 -0.7071 0.7071 -0.7071 669.3887 424.2071)" width="16" height="24"></rect> <rect x="440" y="72" width="16" height="24"></rect> <rect x="461.44" y="65.467" transform="matrix(-0.7071 -0.7071 0.7071 -0.7071 756.2629 460.189)" width="24" height="16"></rect> <rect x="472" y="40" width="24" height="16"></rect> <rect x="465.451" y="10.544" transform="matrix(0.7071 0.7071 -0.7071 0.7071 154.6118 -328.1775)" width="16" height="24"></rect> <rect x="40" y="320" width="16" height="24"></rect> <rect x="10.551" y="334.555" transform="matrix(-0.7071 -0.7071 0.7071 -0.7071 -203.7269 600.7242)" width="24" height="16"></rect> <rect y="360" width="24" height="16"></rect> <rect x="14.502" y="381.439" transform="matrix(-0.7071 -0.7071 0.7071 -0.7071 -239.7915 687.5525)" width="16" height="24"></rect> <rect x="40" y="392" width="16" height="24"></rect> <rect x="61.451" y="385.448" transform="matrix(-0.7071 -0.7071 0.7071 -0.7071 -152.8209 723.5955)" width="24" height="16"></rect> <rect x="72" y="360" width="24" height="16"></rect> <rect x="65.467" y="330.512" transform="matrix(-0.7071 -0.7071 0.7071 -0.7071 -116.7763 636.6539)" width="16" height="24"></rect> <rect x="424" y="288" width="16" height="16"></rect> <rect x="424" y="320" width="16" height="16"></rect> <rect x="440" y="304" width="16" height="16"></rect> <rect x="408" y="304" width="16" height="16"></rect> <rect x="112" y="120" width="16" height="16"></rect> <rect x="112" y="152" width="16" height="16"></rect> <rect x="128" y="136" width="16" height="16"></rect> <rect x="96" y="136" width="16" height="16"></rect> <rect x="48" y="216" width="16" height="16"></rect> <rect x="48" y="248" width="16" height="16"></rect> <rect x="64" y="232" width="16" height="16"></rect> <rect x="32" y="232" width="16" height="16"></rect> <rect x="352" y="128" width="16" height="16"></rect> <rect x="352" y="160" width="16" height="16"></rect> <rect x="368" y="144" width="16" height="16"></rect> <rect x="336" y="144" width="16" height="16"></rect> </g> </g> </g> <g> </g> <g> </g> <g> </g> <g> </g> <g> </g> <g> </g> <g> </g> <g> </g> <g> </g> <g> </g> <g> </g> <g> </g> <g> </g> <g> </g> <g> </g> </svg> 