<?xml version="1.0" encoding="UTF-8"?> <!-- Generator: Adobe Illustrator 25.2.1, SVG Export Plug-In . SVG Version: 6.00 Build 0) --> <svg xmlns="http://www.w3.org/2000/svg" xmlns:xlink="http://www.w3.org/1999/xlink" version="1.1" id="Layer_1" x="0px" y="0px" viewBox="0 0 512 512" style="enable-background:new 0 0 512 512;" xml:space="preserve"> <path d="M467.1,222.8c-15.6,0-29.2,10.9-32.4,26.2h-44.4c-1.6-31-13.9-60.5-34.9-83.4l31.4-31.4c15.2,10,35.6,5.9,45.6-9.3 s5.9-35.6-9.3-45.6c-15.2-10-35.6-5.9-45.6,9.3c-7.1,10.8-7.3,24.7-0.5,35.6l-31.7,31.7c-23.1-20.7-52.6-32.7-83.5-34.1V77.4 c18-3.3,29.9-20.6,26.5-38.6S267.9,9,250,12.4s-29.9,20.6-26.5,38.6c2.4,12.8,12,23,24.6,26.1v44.9c-30.6,1.8-59.7,14.1-82.4,34.8 l-31.4-31.4c10.2-15.1,6.3-35.7-8.9-45.9s-35.7-6.3-45.9,8.9s-6.3,35.7,8.9,45.9c10.8,7.3,24.8,7.6,35.8,0.8l31.7,31.6 c-20.7,23-32.8,52.5-34.1,83.5H77.5c-3-15.7-16.6-27-32.6-27.2c-18.3-0.1-33.2,14.6-33.3,32.9s14.6,33.2,32.9,33.3 c0.1,0,0.2,0,0.4,0c15.2,0.2,28.6-10.2,32.1-25h44.7c1.7,30.6,13.9,59.7,34.6,82.4l-31.2,31.3c-15.3-10.3-36-6.2-46.3,9.1 s-6.2,36,9.1,46.3c15.3,10.3,36,6.2,46.3-9.1c7.3-10.9,7.6-25,0.7-36.2l31.4-31.4c22.8,20.6,52.1,32.6,82.7,34.2v44.2 c-17.9,3.9-29.2,21.5-25.4,39.4c3.9,17.9,21.5,29.2,39.4,25.4c17.9-3.9,29.2-21.5,25.4-39.4c-2.7-12.7-12.7-22.6-25.4-25.4v-44.2 c31-1.6,60.4-13.9,83.3-34.7l31.3,31.3c-10,15.3-5.8,35.8,9.5,45.9c15.3,10,35.8,5.8,45.9-9.5c10-15.3,5.8-35.8-9.5-45.9 c-10.9-7.1-24.9-7.3-35.9-0.3l-31.4-31.5c20.6-22.8,32.6-52.1,34.2-82.8h44.5c3.9,17.8,21.6,29.1,39.4,25.2s29.1-21.6,25.2-39.4 C496.1,233.6,482.6,222.8,467.1,222.8L467.1,222.8z M391.8,93.2c7.5-7.5,19.6-7.5,27,0c7.5,7.5,7.5,19.6,0,27l0,0 c-7.4,7.5-19.5,7.6-27,0.2c-7.5-7.4-7.6-19.5-0.2-27C391.7,93.3,391.7,93.3,391.8,93.2L391.8,93.2z M120.2,120.2 c-7.5,7.5-19.6,7.5-27,0s-7.5-19.6,0-27s19.6-7.5,27,0c0,0,0,0,0,0l0,0C127.7,100.7,127.7,112.8,120.2,120.2 C120.2,120.2,120.2,120.2,120.2,120.2z M44.9,275.1c-10.6,0-19.1-8.6-19.1-19.1c0-10.6,8.6-19.1,19.1-19.1 c10.6,0,19.1,8.6,19.1,19.1C64,266.5,55.4,275.1,44.9,275.1z M120.2,418.8c-7.5,7.5-19.6,7.5-27,0c-7.5-7.5-7.5-19.6,0-27l0,0l0,0 c7.2-7.2,18.7-7.5,26.3-0.7c0.5,0.8,1.2,1.5,1.9,2C127.7,400.7,127.2,411.8,120.2,418.8L120.2,418.8z M391.8,391.8 c7.5-7.5,19.6-7.5,27,0c7.5,7.5,7.5,19.6,0,27c-7.5,7.5-19.6,7.5-27,0c0,0,0,0,0,0l0,0C384.3,411.3,384.3,399.2,391.8,391.8 C391.8,391.8,391.8,391.8,391.8,391.8z M236.9,44.9c0-10.6,8.6-19.1,19.1-19.1c10.6,0,19.1,8.6,19.1,19.1S266.6,64,256,64l0,0 C245.5,64,236.9,55.4,236.9,44.9z M275.1,467.1c0,10.6-8.5,19.1-19.1,19.1c-10.6,0-19.1-8.5-19.1-19.1c0-10,7.7-18.3,17.7-19.1 c0.9,0.2,1.9,0.2,2.8,0C267.4,448.8,275.1,457.1,275.1,467.1z M256,376.8c-66.6,0-120.5-54-120.5-120.5s54-120.5,120.5-120.5 s120.5,54,120.5,120.5c0,0,0,0,0,0C376.5,322.8,322.5,376.7,256,376.8z M467.1,275.1c-10.6,0-19.1-8.6-19.1-19.1 c0-10.6,8.6-19.1,19.1-19.1c10.6,0,19.1,8.6,19.1,19.1c0,0,0,0,0,0C486.2,266.5,477.7,275.1,467.1,275.1z"></path> </svg> 